<svg width="1001" height="1000" viewBox="0 0 1001 1000" fill="none" xmlns="http://www.w3.org/2000/svg">
<path fill-rule="evenodd" clip-rule="evenodd" d="M1000.64 499.82L500.32 0L0 499.82L500.32 999.639L1000.64 499.82ZM868.739 426.36L500.319 58.3077L131.898 426.36L362.161 304.138L408.213 469.88H454.266L454.266 304.138L477.292 469.88H523.345L546.371 304.138V469.88H592.424L638.476 304.138L868.739 426.36ZM131.898 573.282L500.319 941.335L868.739 573.282L638.476 695.504L592.424 529.763H546.371L546.371 695.504L523.345 529.763H477.292L454.266 695.504V529.763L408.213 529.763L362.161 695.504L131.898 573.282Z" fill="white"/>
</svg>
